<svg xmlns="http://www.w3.org/2000/svg" width="476" height="476" viewBox="0 0 476 476"><path fill="#fcf4e1" d="M103.696 0h260.63l.256.068c2.843.727 7.183 1.296 10.224 1.872a166 166 0 0 1 15.713 3.827c24.799 7.368 48.74 25.079 62.166 47.202 20.215 33.308 20.029 76.464 20.122 113.962l-.014 60.159q.07 28.25-.158 56.498c-.126 8.41-.293 22.827-1.241 31.125a204 204 0 0 1-2.994 27.308c-4.237 24.478-11.562 42.965-30.075 60.308-2.425 2.272-11.695 10.496-14.531 11.463.188 9.595-.119 19.283.01 28.908-.162 6.612.495 13.517-.38 20.077-1.004 7.524-8.147 9.402-14.354 6.906-6.473-2.608-12.616-5.553-18.954-8.268l-47.269-20.26c-3.975-1.673-13.794-6.25-17.373-6.733-4.176-.562-12.86-.362-17.418-.329l-32.371.35q-50.476.324-100.939-.803c-48.235-1.258-98.743-1.072-136.833-35.874-27.828-25.425-34.603-58.242-36.11-94.51-.244-1.2-.248-3.313-.298-4.618-1.515-40.203-.94-79.24-.378-119.57.605-44.174-3.241-94.946 21.516-133.96 15.792-24.239 42.08-38.705 70.27-43.24 3.538-.57 7.29-1.136 10.783-1.868"/><path fill="#f8c845" d="M1.803 303.256c4.632-.183 10.493.35 15.18.719a521 521 0 0 1 22.522 2.162A695.7 695.7 0 0 1 155.31 329.07l12.481 3.458c.832.23 5.197 1.41 5.743 1.676 1.602 1.286 29.806 9.58 33.309 10.668 4.68 1.453 12.113 4.208 16.972 5.823 1.473.49 8.53 2.86 9.444 3.442.624.778 6.713 2.486 8.076 3.123a263 263 0 0 0 8.77 3.886l23.49 9.782c37.195 15.347 73.65 32.946 110.89 48.24 5.563 2.285 11.048 4.795 16.653 7.016 3.115-.468 21.29-12.71 22.656-12.391.188 9.595-.119 19.283.01 28.908-.162 6.612.495 13.517-.38 20.077-1.004 7.524-8.147 9.402-14.354 6.906-6.473-2.608-12.616-5.553-18.954-8.268l-47.269-20.26c-3.975-1.673-13.794-6.25-17.373-6.733-4.176-.562-12.86-.362-17.418-.329l-32.371.35q-50.476.324-100.939-.803c-48.235-1.258-98.743-1.072-136.833-35.874-27.828-25.425-34.603-58.242-36.11-94.51"/><path fill="#f3d07f" d="M302.603 342.056c1.958-.007 11.19-2.513 13.662-3.092a1966 1966 0 0 1 32.53-7.366 958 958 0 0 1 86.474-13.796 583 583 0 0 1 24.014-2.286c3.593-.286 8.699-.838 12.11-.803a204 204 0 0 1-2.993 27.308c-4.237 24.478-11.562 42.965-30.075 60.308-2.425 2.272-11.695 10.496-14.531 11.463-1.365-.32-19.541 11.923-22.656 12.39-5.605-2.22-11.09-4.73-16.653-7.015-37.24-15.294-73.695-32.893-110.89-48.24l-23.49-9.782a263 263 0 0 1-8.77-3.886c-1.363-.637-7.452-2.345-8.076-3.123 3.08.976 6.45 2.231 9.558 3.28 2.801-.855 6.927-1.706 9.855-2.406a619 619 0 0 0 16.34-4.094c10.472-2.744 23.277-6.746 33.591-8.86"/><defs><linearGradient id="a" x1="515.842" x2="515.544" y1="767.516" y2="635.96" gradientUnits="userSpaceOnUse"><stop offset="0" stop-color="#f6bc3a"/><stop offset="1" stop-color="#fbe078"/></linearGradient></defs><path fill="url(#a)" d="M381.155 721.278c31.189-77.373 111.912-104.672 186.636-74.094a146.22 146.22 0 0 1 79.256 77.8 130 130 0 0 1 3.931 10.868c-22.188 4.548-49.736 13.156-72.265 19.059a1331 1331 0 0 1-35.15 8.807c-6.298 1.506-15.175 3.338-21.201 5.175-6.687-2.255-13.937-4.956-20.562-7.055-1.964-1.25-17.147-6.351-20.315-7.405-10.453-3.474-26.445-9.4-36.513-12.527-7.535-2.34-68.21-20.183-71.655-22.948 2.521.728 5.391 1.485 7.838 2.32" transform="scale(.46484)"/><path fill="#3e3e3e" d="M350.856 97.02c19.672-.33 31.944 13.336 31.955 32.488.011 19.899-10.474 34.026-31.102 34.336-18.548-.153-31.35-12.043-32.184-30.648-.969-21.608 9.447-35.086 31.33-36.176"/><path fill="#fcf4e1" d="M349.455 110.709c8.309-.878 15.162 4.7 16.468 12.872 1.651 10.332.338 24.155-12.143 26.59-3.978.172-7.955.043-11.174-2.648-10.66-8.913-9.396-34.699 6.85-36.814"/><path fill="#3e3e3e" d="M232.574 97.951c6.241-.38 17.585-.417 23.465.588 7.428 1.448 15.652 4.841 19.908 11.438 9.18 14.23 6.93 37.25-7.502 47.18-11.548 7.476-29.714 5.556-43.314 5.206l-.124-64.02c2.45-.203 5.099-.277 7.567-.392"/><path fill="#fcf4e1" d="M240.501 110.402c6.664-.062 13.527-.482 18.868 4.21 3.8 3.337 5.34 8.065 5.569 12.994.31 6.673-.39 12.42-4.88 17.547-5.955 5.244-11.965 4.826-19.38 4.723-.13-3.703-.005-8.158-.034-11.94z"/><path fill="#3e3e3e" d="M112.053 97.019c7.248-.385 18.719-.524 25.068 2.827 12.737 6.723 10.98 24.113-2.93 28.689 1.411.3 2.897.634 4.234 1.164 12.854 5.095 12.632 20.927 2.634 28.643-10.515 7.26-29.785 4.875-42.287 3.942l-.012-64.117c4.105-.62 9.142-.9 13.293-1.148"/><path fill="#fcf4e1" d="M114.307 134.553c7.953-.024 19.963-1.653 17.994 10.653-.246 1.543-1.208 2.763-2.162 3.932-4.104 3.25-10.648 2.397-15.858 2.305q-.05-8.445.026-16.89"/><path fill="#fcf4e1" d="M114.175 108.735c5.308-.025 15.547-1.124 16.207 6.302.254 2.845-.112 4.328-1.931 6.483-3.659 2.758-9.836 2.18-14.256 2.142-.124-4.783-.023-10.103-.02-14.927"/><path fill="#3e3e3e" d="m196.726 98.07 15.199-.021c-.143 4.63-.058 9.543-.052 14.194l.01 16.224c.017 9.976.65 21.216-7.033 28.725-10.125 9.897-33.913 9.28-42.333-2.637-5.923-8.383-4.599-20.699-4.55-30.497l.067-25.977 15.451-.024c-.216 11.249.088 22.516.032 33.789-.04 7.95-.04 17.096 10.12 18.425 5.95.778 11.458-2.148 12.396-8.415.775-5.34.555-11.051.579-16.473z"/><path fill="#3e3e3e" d="m292.635 98.08 15.502-.023c-.208 7.204-.074 15.042-.084 22.285l-.026 41.82c-3.625.281-11.451.046-15.404.05z"/><path fill="#979797" d="M228.37 194.246c6.79-.051 15.923-.912 21.118 4.162 5.964 5.824 5.447 16.944-.127 22.86-5.466 5.22-13.964 4.135-21.112 3.99.192-10.156.143-20.841.122-31.012"/><path fill="#fcf4e1" d="M232.027 197.42c4.117-.095 10.148-.406 13.439 2.345 5.492 4.592 4.908 14.078.925 19.306-4.224 3.633-8.95 2.964-14.25 2.913-.275-7.977-.13-16.542-.114-24.563"/><path fill="#979797" d="M304.914 194.327h4.297c.89 3 3.105 8.057 4.328 11.111a652 652 0 0 1 7.756 19.938c-1.343-.052-2.913-.015-4.277-.012-.847-2.763-2.114-5.997-3.152-8.7l-3.699-.029-9.715-.024c-.919 2.9-2.026 5.763-3.09 8.616l-4.087-.005c3.63-10.098 8.417-20.76 11.64-30.895"/><path fill="#fcf4e1" d="M306.866 198.827c.83.746 4.994 12.414 5.727 14.363l-5.39-.016-5.519.047z"/><path fill="#979797" d="m272.088 194.337 4.3-.017c.276 1.033.765 2.291 1.179 3.29 3.782 9.143 7.13 18.507 10.844 27.666l-4.362-.006a507 507 0 0 0-3.054-8.596c-1.553-.036-3.22-.004-4.782-.002l-8.775-.052c-.915 2.931-2.028 5.746-3.125 8.613l-4.053.04c2.12-5.005 4.07-10.44 6.033-15.53 1.926-4.994 4.151-10.354 5.795-15.406"/><path fill="#fcf4e1" d="M274.13 198.614c.607.546 4.95 12.912 5.58 14.636-1.788-.039-3.612-.033-5.403-.045l-5.531.079c1.382-4.43 3.748-10.086 5.355-14.67"/><path fill="#979797" d="m166.094 194.368 4.497-.073c.88 3.194 2.693 7.689 3.871 10.813 2.558 6.78 5.26 13.4 7.594 20.277-1.278-.093-2.75-.044-4.045-.037-.783-2.528-2.24-6.165-3.206-8.706l-3.859.024c-3.102.073-6.384.009-9.501-.006l-2.89 8.723-3.952.01c3.66-9.964 8.156-21.08 11.491-31.025"/><path fill="#fcf4e1" d="M168.184 198.42c.537.621 4.808 13.156 5.413 14.916l-5.09-.088-5.72.059c1.812-5.022 3.702-9.787 5.397-14.887"/><path fill="#979797" d="m212.384 194.316 3.704-.012c-.107 9.846-.234 20.855-.04 30.63l-.118.216c-.742.277-3.732.157-4.716.147-4.13-7.109-8.813-13.8-13.229-20.727-1.006-1.58-2.035-3.476-3.261-4.87q.18 12.753.101 25.506l-3.762.036q.093-15.465-.064-30.93l4.43.055a1538 1538 0 0 1 17 25.978z"/><path fill="#979797" d="M340.93 194.146c4.17-.56 7.65.138 11.65 1.056l-.94 3.72c-11.19-4.76-21.538.583-19.713 13.576 1.438 10.232 9.44 10.38 17.456 9.246l-.068-9.092c-1.314.011-5.707.324-6.475-.474a23 23 0 0 1 .096-2.353c.835-.586 8.517-.398 10.146-.399l-.01 14.864a37 37 0 0 1-3.532.825c-9.203 1.704-19.93-.32-21.662-11.33-1.54-9.785 2.675-17.916 13.053-19.639"/><path fill="#979797" d="m144.568 194.374 4.216-.065-1.438 3.963-9.946 26.92-4.525.024c-.989-3.585-2.542-7.595-3.831-11.114a1446 1446 0 0 0-7.22-19.246l.184-.356.82-.076h3.167c.32 1.168.815 2.527 1.228 3.677 2.774 7.725 5.506 15.381 8.022 23.195.755-3.131 2.117-6.459 3.17-9.51 1.986-5.756 4.344-11.615 6.153-17.412"/><path fill="#f3d07f" d="M236.638 254.08q.7-.075 1.403-.08c6.048 0 4.83 8.061 4.878 12.012.028 2.32-.032 4.68-.051 7.002-1.144 2.132-1.535 2.469-3.72 3.437-1.06.154-1.961.088-2.977-.269-1.264-.443-2.136-1.307-2.68-2.525-.871-1.953-1.044-14.716-.305-16.501.686-1.658 1.88-2.37 3.452-3.076"/><path fill="#f3d07f" d="M292.171 270.116c13.85-.994.02 16.908-4.052 19.19-9.046 1.059-5.818-7.917-2.233-11.89 2.29-2.537 2.82-5.483 6.285-7.3"/><path fill="#f8c845" d="M324.322 307.046c2.742-.259 4.666.353 5.687 3.151a4 4 0 0 1-.143 3.138c-1.365 2.885-11.454 6.95-14.71 8.196-5.884.784-8.204-5.949-2.56-8.733 3.875-1.91 7.72-4.11 11.726-5.752"/><path fill="#f3d07f" d="M182.12 268.464c4.87-.256 7.054 5.496 10.15 8.646 3.253 3.308 5.613 8.083-.348 10.196-4.779.019-5.43-3.212-8.368-6.271-3.433-3.573-9.422-9.97-1.434-12.571"/><path fill="#f8c845" d="M152.058 301.947c3.02-.19 7.143 2.695 10.016 3.592 4.907 1.53 11.632 6.91 4.14 10.723-2.796.26-3.739-.926-6.128-1.639-4.244-1.267-18.185-7.806-8.028-12.676"/></svg>