<svg version="1.2" xmlns="http://www.w3.org/2000/svg" viewBox="0 0 472 170" width="600" height="216">
	<style>
		.s0 { fill: #f8c845 } 
		.s1 { fill: #f3d07f } 
	</style>
	<path class="s0" d="m1.8 1.26c4.64-0.19 10.5 0.35 15.18 0.71q2.82 0.21 5.64 0.45 2.82 0.24 5.64 0.51 2.81 0.27 5.62 0.57 2.82 0.31 5.63 0.64 14.68 1.63 29.29 3.88 14.6 2.25 29.09 5.12 14.5 2.87 28.86 6.36 14.36 3.48 28.56 7.57l12.48 3.46c0.83 0.23 5.2 1.41 5.74 1.67 1.61 1.29 29.81 9.58 33.31 10.67 4.68 1.45 12.12 4.21 16.98 5.82 1.47 0.5 8.53 2.87 9.44 3.45 0.62 0.78 6.71 2.48 8.08 3.12q1.08 0.51 2.17 1 1.1 0.5 2.19 0.98 1.1 0.49 2.2 0.96 1.1 0.48 2.2 0.95l23.5 9.78c37.19 15.34 73.65 32.94 110.89 48.24 5.56 2.28 11.04 4.79 16.65 7.01 3.11-0.46 21.29-12.71 22.65-12.39 0.19 9.6-0.11 19.29 0.01 28.91-0.16 6.61 0.5 13.52-0.38 20.08-1 7.52-8.14 9.4-14.35 6.9-6.47-2.6-12.62-5.55-18.95-8.26l-47.27-20.26c-3.98-1.68-13.8-6.25-17.38-6.74-4.17-0.56-12.86-0.36-17.41-0.33l-32.37 0.35q-50.48 0.33-100.94-0.8c-48.24-1.26-98.75-1.07-136.84-35.87-27.82-25.43-34.6-58.24-36.11-94.51z"/>
	<path class="s1" d="m302.6 40.06c1.96-0.01 11.19-2.52 13.67-3.1q4.05-0.95 8.12-1.89 4.06-0.94 8.12-1.86 4.07-0.92 8.14-1.82 4.07-0.91 8.14-1.79 10.73-2.22 21.5-4.19 10.77-1.97 21.58-3.7 10.82-1.72 21.67-3.2 10.85-1.48 21.73-2.71 2.99-0.35 5.99-0.66 3-0.32 6-0.61 3.01-0.28 6.01-0.54 3.01-0.25 6.01-0.47c3.6-0.29 8.7-0.84 12.11-0.81q-0.14 3.44-0.4 6.86-0.26 3.43-0.63 6.85-0.38 3.41-0.87 6.82-0.49 3.4-1.09 6.78c-4.24 24.48-11.56 42.97-30.07 60.31-2.43 2.27-11.7 10.49-14.54 11.46-1.36-0.32-19.54 11.93-22.65 12.39-5.61-2.22-11.09-4.73-16.65-7.01-37.25-15.3-73.7-32.9-110.89-48.24l-23.5-9.78q-1.1-0.47-2.2-0.95-1.1-0.47-2.2-0.96-1.09-0.48-2.19-0.98-1.09-0.5-2.17-1c-1.37-0.64-7.46-2.35-8.08-3.12 3.08 0.97 6.45 2.23 9.56 3.28 2.8-0.86 6.92-1.71 9.85-2.41q2.05-0.48 4.1-0.98 2.04-0.5 4.09-1.01 2.04-0.51 4.08-1.04 2.04-0.52 4.07-1.06c10.47-2.75 23.28-6.75 33.59-8.86z"/>
</svg>